<?xml version="1.0" encoding="UTF-8"?>
<svg version="1.1" xmlns="http://www.w3.org/2000/svg" width="335" height="62">
<path d="M0 0 C110.55 0 221.1 0 335 0 C335 20.46 335 40.92 335 62 C224.45 62 113.9 62 0 62 C0 41.54 0 21.08 0 0 Z " fill="#FCF9FA" transform="translate(0,0)"/>
<path d="M0 0 C0.74056641 0.00902344 1.48113281 0.01804688 2.24414062 0.02734375 C4.05873467 0.05075787 5.87316071 0.08662385 7.6875 0.125 C7.3575 1.775 7.0275 3.425 6.6875 5.125 C6.0275 4.135 5.3675 3.145 4.6875 2.125 C1.62193402 1.39156572 1.62193402 1.39156572 -1.3125 1.125 C-1.3125 1.785 -1.3125 2.445 -1.3125 3.125 C-3.3125 2.125 -3.3125 2.125 -4.3125 1.125 C-4.3125 2.445 -4.3125 3.765 -4.3125 5.125 C-3.6525 5.455 -2.9925 5.785 -2.3125 6.125 C-3.6325 5.795 -4.9525 5.465 -6.3125 5.125 C-6.3125 4.135 -6.3125 3.145 -6.3125 2.125 C-6.9725 2.125 -7.6325 2.125 -8.3125 2.125 C-8.6425 3.115 -8.9725 4.105 -9.3125 5.125 C-9.3125 4.465 -9.3125 3.805 -9.3125 3.125 C-9.9725 3.125 -10.6325 3.125 -11.3125 3.125 C-11.3125 4.445 -11.3125 5.765 -11.3125 7.125 C-8.3125 8.45833333 -8.3125 8.45833333 -5.3125 7.125 C5.50491788 6.33661192 5.50491788 6.33661192 9.6875 9.125 C11.375 12.125 11.375 12.125 12.6875 15.125 C13.3475 15.785 14.0075 16.445 14.6875 17.125 C15.4702525 24.77970949 15.67414986 33.30194679 11.6875 40.125 C8.79962327 43.58572754 5.76177238 47.08786381 1.6875 49.125 C6.12826448 48.60863204 8.91981273 47.46707587 12.6875 45.125 C13.6775 45.125 14.6675 45.125 15.6875 45.125 C15.790625 44.58875 15.89375 44.0525 16 43.5 C16.6875 41.125 16.6875 41.125 18.25 38.6875 C20.65879503 32.71787753 21.1553587 25.6962271 18.66796875 19.64453125 C17.44828784 17.68051335 16.15819615 15.90646825 14.6875 14.125 C14.089375 13.3 13.49125 12.475 12.875 11.625 C12.2871875 10.8825 12.2871875 10.8825 11.6875 10.125 C13.0075 10.785 14.3275 11.445 15.6875 12.125 C16.3475 11.465 17.0075 10.805 17.6875 10.125 C18.6775 10.125 19.6675 10.125 20.6875 10.125 C21.1825 10.62 21.1825 10.62 21.6875 11.125 C22.0175 10.465 22.3475 9.805 22.6875 9.125 C28.16182935 17.35738841 30.81729615 24.07934264 29.6875 34.125 C28.1728968 39.39253627 25.94038458 44.6892483 22.6875 49.125 C22.0275 49.125 21.3675 49.125 20.6875 49.125 C20.3575 50.115 20.0275 51.105 19.6875 52.125 C17.32421875 53.6953125 17.32421875 53.6953125 14.375 55.25 C12.92673828 56.02730469 12.92673828 56.02730469 11.44921875 56.8203125 C4.23945733 60.2263384 -3.93917754 60.28456125 -11.4375 57.625 C-19.86615965 53.77917278 -26.05972157 47.90736374 -29.4921875 39.2421875 C-32.1403053 29.17933986 -30.97283236 20.66394014 -26.015625 11.61328125 C-22.48322844 6.45241747 -19.13413683 4.37194755 -13.3125 2.125 C-12.58546875 1.76921875 -11.8584375 1.4134375 -11.109375 1.046875 C-7.3941315 -0.17770247 -3.86198709 -0.08973339 0 0 Z " fill="#FAF4F5" transform="translate(31.3125,1.875)"/>
<path d="M0 0 C3.29164829 -0.02895225 6.58326399 -0.0467823 9.875 -0.0625 C10.81214844 -0.07087891 11.74929687 -0.07925781 12.71484375 -0.08789062 C14.05869141 -0.09272461 14.05869141 -0.09272461 15.4296875 -0.09765625 C16.67081299 -0.10551147 16.67081299 -0.10551147 17.93701172 -0.11352539 C20 0 20 0 22 1 C23.03013277 2.64821244 24.03114628 4.31503702 25 6 C25.33 6.33 25.66 6.66 26 7 C26.64717941 16.0605117 26.93040162 24.81257804 21.265625 32.2890625 C18.22068679 35.62905286 15.702626 37.71142146 11.5 39.4375 C6.18751064 38.77343883 3.4073509 35.99252638 0 32 C-4.17011645 25.63697749 -5.13881122 19.7423103 -5.0625 12.1875 C-5.05347656 11.02605469 -5.04445313 9.86460938 -5.03515625 8.66796875 C-5.02355469 7.78753906 -5.01195312 6.90710938 -5 6 C-4.01 5.67 -3.02 5.34 -2 5 C-0.78130071 2.49552484 -0.78130071 2.49552484 0 0 Z " fill="#FAF8FA" transform="translate(20,12)"/>
<path d="M0 0 C5.23983427 4.11701264 7.4746362 10.3066925 8.390625 16.74609375 C8.72616807 25.19458895 6.0131548 33.16387982 1 40 C0.34 40 -0.32 40 -1 40 C-1.33 40.99 -1.66 41.98 -2 43 C-4.36328125 44.5703125 -4.36328125 44.5703125 -7.3125 46.125 C-8.76076172 46.90230469 -8.76076172 46.90230469 -10.23828125 47.6953125 C-14.48287814 49.70053932 -17.87567487 50.15561684 -22.5625 50.1875 C-23.98755859 50.20876953 -23.98755859 50.20876953 -25.44140625 50.23046875 C-28 50 -28 50 -31 48 C-29.35 48 -27.7 48 -26 48 C-25.83312552 45.58354218 -25.83312552 45.58354218 -26 43 C-26.66 42.34 -27.32 41.68 -28 41 C-27.29875 40.97421875 -26.5975 40.9484375 -25.875 40.921875 C-20.05772424 40.57410308 -15.69017197 39.83673374 -10.65625 36.83984375 C-9 36 -9 36 -6 36 C-5.896875 35.46375 -5.79375 34.9275 -5.6875 34.375 C-5 32 -5 32 -3.4375 29.5625 C-1.02870497 23.59287753 -0.5321413 16.5712271 -3.01953125 10.51953125 C-4.23921216 8.55551335 -5.52930385 6.78146825 -7 5 C-7.598125 4.175 -8.19625 3.35 -8.8125 2.5 C-9.204375 2.005 -9.59625 1.51 -10 1 C-8.68 1.66 -7.36 2.32 -6 3 C-5.34 2.34 -4.68 1.68 -4 1 C-3.01 1 -2.02 1 -1 1 C-0.67 1.33 -0.34 1.66 0 2 C0 1.34 0 0.68 0 0 Z " fill="#F7E7EA" transform="translate(53,11)"/>
<path d="M0 0 C8.58 0 17.16 0 26 0 C22 2 22 2 20.0703125 2.89453125 C11.66875539 6.85912145 7.10169028 11.04159818 3.1484375 19.5546875 C0.29419945 28.11740165 0.80466253 36.38844383 4.5625 44.5625 C9.43043442 53.01613903 15.60103769 57.41325389 25 60 C28.66560335 60.5521605 32.29688704 60.85919723 36 61 C36 61.33 36 61.66 36 62 C24.12 62 12.24 62 0 62 C0 41.54 0 21.08 0 0 Z " fill="#FEFEFE" transform="translate(0,0)"/>
<path d="M0 0 C0.66 0.33 1.32 0.66 2 1 C1.34 1.66 0.68 2.32 0 3 C0.33 3.33 0.66 3.66 1 4 C1.33 3.34 1.66 2.68 2 2 C2.99 2.33 3.98 2.66 5 3 C4.34 4.65 3.68 6.3 3 8 C2.01 8 1.02 8 0 8 C0 8.99 0 9.98 0 11 C0 11.33 0 11.66 0 12 C0.33 12.66 0.66 13.32 1 14 C0.67 15.175625 0.34 16.35125 0 17.5625 C-1.44431915 23.07083442 -1.4584826 28.11764285 1.15234375 33.27734375 C2.37451019 35.23635257 3.66397178 37.11782511 5 39 C5.33 39.66 5.66 40.32 6 41 C4.02 41.66 2.04 42.32 0 43 C0 42.01 0 41.02 0 40 C-1.485 40.495 -1.485 40.495 -3 41 C-1.02 43.31 0.96 45.62 3 48 C-3.16057933 44.91971033 -6.68351138 40.04447217 -9.26171875 33.7421875 C-11.90675478 23.91776797 -10.52439125 15.29074463 -5.703125 6.48828125 C-4.00839599 4.01226661 -2.19485892 2.03740165 0 0 Z " fill="#E9CBD4" transform="translate(11,7)"/>
<path d="M0 0 C3.29164829 -0.02895225 6.58326399 -0.0467823 9.875 -0.0625 C10.81214844 -0.07087891 11.74929687 -0.07925781 12.71484375 -0.08789062 C14.05869141 -0.09272461 14.05869141 -0.09272461 15.4296875 -0.09765625 C16.67081299 -0.10551147 16.67081299 -0.10551147 17.93701172 -0.11352539 C20 0 20 0 22 1 C23.03013277 2.64821244 24.03114628 4.31503702 25 6 C25.33 6.33 25.66 6.66 26 7 C26.64717941 16.0605117 26.93040162 24.81257804 21.265625 32.2890625 C18.22068679 35.62905286 15.702626 37.71142146 11.5 39.4375 C6.18751064 38.77343883 3.4073509 35.99252638 0 32 C-4.17011645 25.63697749 -5.13881122 19.7423103 -5.0625 12.1875 C-5.05347656 11.02605469 -5.04445313 9.86460938 -5.03515625 8.66796875 C-5.02355469 7.78753906 -5.01195312 6.90710938 -5 6 C-4.01 5.67 -3.02 5.34 -2 5 C-0.78130071 2.49552484 -0.78130071 2.49552484 0 0 Z M2 4 C1.30062468 5.31647119 0.63270867 6.65022151 0 8 C-0.99 8.495 -0.99 8.495 -2 9 C-2.65437605 17.46326364 -2.09323631 23.9920132 3 31 C5.30819438 33.423867 6.92240128 34.46120064 10 36 C13.73672594 35.63544137 15.62647783 33.55879967 18.125 30.9375 C22.97195539 24.90379007 24.31791652 18.45688916 24.3984375 10.84765625 C24.13543915 8.58732039 24.13543915 8.58732039 21 7 C20.67 6.01 20.34 5.02 20 4 C16.89321794 2.7686103 13.74549597 2.86599865 10.4375 2.875 C9.48746094 2.87242188 8.53742187 2.86984375 7.55859375 2.8671875 C4.8787562 2.89229006 4.8787562 2.89229006 2 4 Z " fill="#544F9B" transform="translate(20,12)"/>
<path d="M0 0 C4.49980879 3.4765646 8.27172166 6.40851126 10 12 C10.89095583 19.47802249 10.60066011 26.24923233 6.828125 32.89453125 C3.44554524 36.79028016 -1.0432818 38.78113487 -6 40 C-8.33984375 39.61328125 -8.33984375 39.61328125 -10 39 C-9.31292969 38.45472656 -8.62585937 37.90945312 -7.91796875 37.34765625 C-2.07086604 32.45415828 2.02600052 28.73401971 3 21 C3.34920165 16.30118375 3.61360314 11.6802279 3 7 C1.53129491 5.34342889 1.53129491 5.34342889 0 4 C0 2.68 0 1.36 0 0 Z " fill="#F7F5F8" transform="translate(42,12)"/>
<path d="M0 0 C3.63 0 7.26 0 11 0 C9.68 0.33 8.36 0.66 7 1 C5.70339566 3.49034386 5.70339566 3.49034386 5 6 C8.76687864 6 9.91190305 5.76462683 13 4 C13 4.99 13 5.98 13 7 C12.34 7.66 11.68 8.32 11 9 C11 9.66 11 10.32 11 11 C8.69 11.66 6.38 12.32 4 13 C3.67 14.32 3.34 15.64 3 17 C5.15811388 16.05270463 5.15811388 16.05270463 7 14 C9.625 13.875 9.625 13.875 12 14 C12 14.99 12 15.98 12 17 C13.32 17 14.64 17 16 17 C16 17.99 16 18.98 16 20 C13.69 20.33 11.38 20.66 9 21 C9.66 21.99 10.32 22.98 11 24 C8.83125748 23.49396008 7.00032373 23.00016187 5 22 C4.34 22.66 3.68 23.32 3 24 C2.67 23.01 2.34 22.02 2 21 C1.34 21 0.68 21 0 21 C0.33 19.35 0.66 17.7 1 16 C-0.98 14.68 -2.96 13.36 -5 12 C-4.67 11.34 -4.34 10.68 -4 10 C-2.68 10 -1.36 10 0 10 C-0.66 9.34 -1.32 8.68 -2 8 C-1.625 4.875 -1.625 4.875 -1 2 C-0.34 2 0.32 2 1 2 C1 3.32 1 4.64 1 6 C2.70840281 4.36587557 3.93453047 3.13093906 5 1 C3.35 1 1.7 1 0 1 C0 0.67 0 0.34 0 0 Z " fill="#C9B5CA" transform="translate(25,15)"/>
<path d="M0 0 C3.95820859 0.56545837 6.6659053 1.80902348 10 4 C8 5.33333333 6 6.66666667 4 8 C4 7.01 4 6.02 4 5 C3.34 5 2.68 5 2 5 C2.66 6.65 3.32 8.3 4 10 C1 10 1 10 -0.8828125 9.01171875 C-6.1606426 6.48965603 -13.46521853 7.83478285 -19 9 C-19 7.02 -19 5.04 -19 3 C-17.35 2.67 -15.7 2.34 -14 2 C-13.01 3.485 -13.01 3.485 -12 5 C-12 3.68 -12 2.36 -12 1 C-11.34 1.33 -10.68 1.66 -10 2 C-9.67 1.67 -9.34 1.34 -9 1 C-3.47058824 0.76470588 -3.47058824 0.76470588 -1 2 C-0.67 1.34 -0.34 0.68 0 0 Z " fill="#CEC0D6" transform="translate(39,2)"/>
<path d="M0 0 C0.33 0.66 0.66 1.32 1 2 C2.32 1.67 3.64 1.34 5 1 C4.67 1.99 4.34 2.98 4 4 C3.01 3.67 2.02 3.34 1 3 C1 3.99 1 4.98 1 6 C1.99 6 2.98 6 4 6 C3.34 7.32 2.68 8.64 2 10 C3.32 9.01 4.64 8.02 6 7 C9.42484079 10.08235671 11.94607159 13.89214317 14 18 C12.02 18.66 10.04 19.32 8 20 C8 19.01 8 18.02 8 17 C7.01 17.33 6.02 17.66 5 18 C6.98 20.31 8.96 22.62 11 25 C4.14668546 21.57334273 1.23447091 16.46557878 -1.41796875 9.48046875 C-2.30561782 5.69753478 -1.52895873 3.51660507 0 0 Z " fill="#F9E6E8" transform="translate(3,30)"/>
<path d="M0 0 C3.125 0.375 3.125 0.375 6 1 C5.67 1.66 5.34 2.32 5 3 C3.68 2.67 2.36 2.34 1 2 C3.475 3.98 3.475 3.98 6 6 C5.67 7.65 5.34 9.3 5 11 C3.25 11.625 3.25 11.625 1 12 C-0.33333333 11.33333333 -1.66666667 10.66666667 -3 10 C-5.19747131 10.29805007 -5.19747131 10.29805007 -7 11 C-7 9.68 -7 8.36 -7 7 C-7.66 6.67 -8.32 6.34 -9 6 C-9 7.65 -9 9.3 -9 11 C-9.66 11 -10.32 11 -11 11 C-11 7.7 -11 4.4 -11 1 C-10.34 1 -9.68 1 -9 1 C-9 2.32 -9 3.64 -9 5 C-8.01 5 -7.02 5 -6 5 C-6 3.68 -6 2.36 -6 1 C-5.38125 1.20625 -4.7625 1.4125 -4.125 1.625 C-3.073125 1.810625 -3.073125 1.810625 -2 2 C-1.34 1.34 -0.68 0.68 0 0 Z " fill="#D6D9DD" transform="translate(117,16)"/>
<path d="M0 0 C2.60527105 -0.10792837 5.20608311 -0.18724878 7.8125 -0.25 C8.55048828 -0.28351562 9.28847656 -0.31703125 10.04882812 -0.3515625 C15.51201923 -0.45044379 15.51201923 -0.45044379 18.03125 1.875 C19 4 19 4 18.6875 6.25 C18.3471875 7.11625 18.3471875 7.11625 18 8 C17.0925 7.814375 16.185 7.62875 15.25 7.4375 C12.22185402 7.02986496 10.82616952 7.15214914 8 8 C4.88742431 8 2.89234315 7.82638376 0 7 C-1.125 2.25 -1.125 2.25 0 0 Z " fill="#818A97" transform="translate(278,20)"/>
<path d="M0 0 C3.29164829 -0.02895225 6.58326399 -0.0467823 9.875 -0.0625 C10.81214844 -0.07087891 11.74929687 -0.07925781 12.71484375 -0.08789062 C14.05869141 -0.09272461 14.05869141 -0.09272461 15.4296875 -0.09765625 C16.67081299 -0.10551147 16.67081299 -0.10551147 17.93701172 -0.11352539 C20 0 20 0 22 1 C23.03013277 2.64821244 24.03114628 4.31503702 25 6 C25.33 6.33 25.66 6.66 26 7 C26.07244053 9.01964199 26.08377188 11.04167124 26.0625 13.0625 C26.05347656 14.16722656 26.04445313 15.27195312 26.03515625 16.41015625 C26.02355469 17.26480469 26.01195313 18.11945312 26 19 C25.34 19.33 24.68 19.66 24 20 C24 16.37 24 12.74 24 9 C22.68 8.34 21.36 7.68 20 7 C20 6.01 20 5.02 20 4 C17.62492145 3.97280444 15.25016036 3.95306753 12.875 3.9375 C12.20984375 3.92912109 11.5446875 3.92074219 10.859375 3.91210938 C6.79318646 3.89217708 2.9879908 4.21109839 -1 5 C-0.67 3.35 -0.34 1.7 0 0 Z " fill="#4A4495" transform="translate(20,12)"/>
<path d="M0 0 C2.64 0 5.28 0 8 0 C8.28875 0.639375 8.5775 1.27875 8.875 1.9375 C9.82823451 4.15206079 9.82823451 4.15206079 12 5 C12 7.97 12 10.94 12 14 C11.67 13.01 11.34 12.02 11 11 C6.545 11.495 6.545 11.495 2 12 C2 11.34 2 10.68 2 10 C2.66 10 3.32 10 4 10 C4 9.34 4 8.68 4 8 C3.34 7.67 2.68 7.34 2 7 C3.32 6.01 4.64 5.02 6 4 C5.071875 4.4640625 5.071875 4.4640625 4.125 4.9375 C2.75 5.625 1.375 6.3125 0 7 C0 6.34 0 5.68 0 5 C-0.66 5 -1.32 5 -2 5 C-1.34 3.35 -0.68 1.7 0 0 Z " fill="#EBBEC6" transform="translate(32,16)"/>
<path d="M0 0 C0.66 0.66 1.32 1.32 2 2 C4.89883083 2.24339551 4.89883083 2.24339551 8.125 2.125 C9.76855469 2.09792969 9.76855469 2.09792969 11.4453125 2.0703125 C12.28835937 2.04710937 13.13140625 2.02390625 14 2 C14.61669998 8.90703976 13.11242982 12.47759424 9 18 C8.34 17.01 7.68 16.02 7 15 C7.33 14.34 7.66 13.68 8 13 C6.68 12.34 5.36 11.68 4 11 C7 9 7 9 9.6875 9.375 C10.450625 9.58125 11.21375 9.7875 12 10 C12 9.01 12 8.02 12 7 C10.68 7 9.36 7 8 7 C8 6.01 8 5.02 8 4 C5.97954558 4.60183749 3.97888961 5.27306096 2 6 C1.67 6.66 1.34 7.32 1 8 C0.34 7.67 -0.32 7.34 -1 7 C-1.04254356 5.00045254 -1.04080783 2.99958364 -1 1 C-0.67 0.67 -0.34 0.34 0 0 Z " fill="#F8F1F4" transform="translate(29,25)"/>
<path d="M0 0 C0.74056641 0.00902344 1.48113281 0.01804688 2.24414062 0.02734375 C4.05873467 0.05075787 5.87316071 0.08662385 7.6875 0.125 C7.3575 1.775 7.0275 3.425 6.6875 5.125 C6.0275 4.135 5.3675 3.145 4.6875 2.125 C1.62193402 1.39156572 1.62193402 1.39156572 -1.3125 1.125 C-1.3125 1.785 -1.3125 2.445 -1.3125 3.125 C-3.3125 2.125 -3.3125 2.125 -4.3125 1.125 C-4.3125 2.445 -4.3125 3.765 -4.3125 5.125 C-3.6525 5.455 -2.9925 5.785 -2.3125 6.125 C-3.6325 5.795 -4.9525 5.465 -6.3125 5.125 C-6.3125 4.135 -6.3125 3.145 -6.3125 2.125 C-6.9725 2.125 -7.6325 2.125 -8.3125 2.125 C-8.6425 3.115 -8.9725 4.105 -9.3125 5.125 C-9.3125 4.465 -9.3125 3.805 -9.3125 3.125 C-9.9725 3.125 -10.6325 3.125 -11.3125 3.125 C-11.3125 4.445 -11.3125 5.765 -11.3125 7.125 C-10.6525 7.455 -9.9925 7.785 -9.3125 8.125 C-15.0625 12 -15.0625 12 -17.3125 13.125 C-16.9825 11.475 -16.6525 9.825 -16.3125 8.125 C-16.9725 7.795 -17.6325 7.465 -18.3125 7.125 C-18.6425 8.115 -18.9725 9.105 -19.3125 10.125 C-19.9725 9.465 -20.6325 8.805 -21.3125 8.125 C-20.0889437 7.15951388 -18.85835189 6.20294102 -17.625 5.25 C-16.94050781 4.71632813 -16.25601562 4.18265625 -15.55078125 3.6328125 C-10.44901328 0.19601942 -6.0437402 -0.14042649 0 0 Z " fill="#FAF9FB" transform="translate(31.3125,1.875)"/>
<path d="M0 0 C3.31961109 3.31961109 3.15565832 6.82800799 3.1875 11.375 C3.15907013 15.62242184 2.70669309 19.05327222 1 23 C0 20 0 20 0 18 C-1.32 18 -2.64 18 -4 18 C-4.04254356 16.00045254 -4.04080783 13.99958364 -4 12 C-3.67 11.67 -3.34 11.34 -3 11 C-3.30791692 9.328451 -3.64386903 7.66194453 -4 6 C-4 5.01 -4 4.02 -4 3 C-2.68 3 -1.36 3 0 3 C0 2.01 0 1.02 0 0 Z M0 7 C0.33 8.32 0.66 9.64 1 11 C1.33 9.68 1.66 8.36 2 7 C1.34 7 0.68 7 0 7 Z " fill="#F6CBCE" transform="translate(58,19)"/>
<path d="M0 0 C0.99 0.66 1.98 1.32 3 2 C4.32 2 5.64 2 7 2 C7.3125 4.75 7.3125 4.75 7 8 C4.5 10.375 4.5 10.375 2 12 C-1.93673644 10.68775452 -4.22719294 9.08089673 -7 6 C-6 5 -6 5 -3.4375 4.9375 C-2.2309375 4.9684375 -2.2309375 4.9684375 -1 5 C-0.67 3.35 -0.34 1.7 0 0 Z " fill="#E4DAE4" transform="translate(30,36)"/>
<path d="M0 0 C6.0546875 -0.1953125 6.0546875 -0.1953125 8 0 C8.66 0.66 9.32 1.32 10 2 C9.70131344 4.00546689 9.36628677 6.00577205 9 8 C9.33 8.99 9.66 9.98 10 11 C9.01 11 8.02 11 7 11 C6.34 10.01 5.68 9.02 5 8 C5 9.32 5 10.64 5 12 C3.35 12 1.7 12 0 12 C0 8.04 0 4.08 0 0 Z " fill="#838C98" transform="translate(76,16)"/>
<path d="M0 0 C0.5775 0.350625 1.155 0.70125 1.75 1.0625 C4.35801776 2.14917407 5.39417629 1.93065133 8 1 C8 3.31 8 5.62 8 8 C3.545 8.495 3.545 8.495 -1 9 C-1.66 7.35 -2.32 5.7 -3 4 C-3.99 4 -4.98 4 -6 4 C-6 3.01 -6 2.02 -6 1 C-5.34 1 -4.68 1 -4 1 C-4 1.66 -4 2.32 -4 3 C-2.68 2.01 -1.36 1.02 0 0 Z " fill="#A0A6B0" transform="translate(196,19)"/>
<path d="M0 0 C1.32 0 2.64 0 4 0 C4 0.99 4 1.98 4 3 C5.32 3.66 6.64 4.32 8 5 C8.125 7.375 8.125 7.375 8 10 C7.34 10.66 6.68 11.32 6 12 C4.02 12 2.04 12 0 12 C0 8.04 0 4.08 0 0 Z " fill="#DADCE0" transform="translate(149,16)"/>
<path d="M0 0 C0.66 0.33 1.32 0.66 2 1 C1.34 1.66 0.68 2.32 0 3 C0.33 3.33 0.66 3.66 1 4 C1.33 3.34 1.66 2.68 2 2 C2.99 2.33 3.98 2.66 5 3 C4.34 4.65 3.68 6.3 3 8 C2.01 8 1.02 8 0 8 C0 8.99 0 9.98 0 11 C0 11.33 0 11.66 0 12 C0.33 12.66 0.66 13.32 1 14 C0.34 14.66 -0.32 15.32 -1 16 C-1 15.34 -1 14.68 -1 14 C-1.61875 13.9175 -2.2375 13.835 -2.875 13.75 C-5 13 -5 13 -6.1328125 10.953125 C-6.41898437 10.30859375 -6.70515625 9.6640625 -7 9 C-6.02180976 7.68677212 -5.0424189 6.37443848 -4.0625 5.0625 C-3.51722656 4.33160156 -2.97195312 3.60070312 -2.41015625 2.84765625 C-1 1 -1 1 0 0 Z " fill="#F7DADD" transform="translate(11,7)"/>
<path d="M0 0 C0.78375 0.04125 1.5675 0.0825 2.375 0.125 C2.375 1.115 2.375 2.105 2.375 3.125 C3.695 3.125 5.015 3.125 6.375 3.125 C6.375 4.115 6.375 5.105 6.375 6.125 C4.065 6.455 1.755 6.785 -0.625 7.125 C0.365 8.61 0.365 8.61 1.375 10.125 C-0.79374252 9.61896008 -2.62467627 9.12516187 -4.625 8.125 C-5.285 8.785 -5.945 9.445 -6.625 10.125 C-6.625 7.815 -6.625 5.505 -6.625 3.125 C-5.965 2.795 -5.305 2.465 -4.625 2.125 C-2.625 0.125 -2.625 0.125 0 0 Z " fill="#EF8E94" transform="translate(34.625,28.875)"/>
<path d="M0 0 C0 0.66 0 1.32 0 2 C-0.99 2 -1.98 2 -3 2 C-3 3.98 -3 5.96 -3 8 C-5.64 8 -8.28 8 -11 8 C-11 5.36 -11 2.72 -11 0 C-7.18243176 -1.37432457 -3.92744671 -0.67975039 0 0 Z " fill="#A3A9B3" transform="translate(217,20)"/>
<path d="M0 0 C4.08378283 0.74250597 8.01939223 1.82923301 12 3 C12 4.32 12 5.64 12 7 C8.04 7 4.08 7 0 7 C0 4.69 0 2.38 0 0 Z " fill="#FDB2B7" transform="translate(113,33)"/>
<path d="M0 0 C6 0 6 0 9 2 C8.6875 3.9375 8.6875 3.9375 8 6 C7.01 6.33 6.02 6.66 5 7 C5 8.65 5 10.3 5 12 C3.35 12 1.7 12 0 12 C0 8.04 0 4.08 0 0 Z " fill="#717A89" transform="translate(325,16)"/>
<path d="M0 0 C2.8125 -0.25 2.8125 -0.25 6 0 C7.9375 1.75 7.9375 1.75 9 4 C8.6875 6.25 8.6875 6.25 8 8 C7.0925 7.814375 6.185 7.62875 5.25 7.4375 C1.8491925 6.77576292 1.8491925 6.77576292 -2 8 C-1.34 5.36 -0.68 2.72 0 0 Z " fill="#989FAA" transform="translate(288,20)"/>
<path d="M0 0 C1.98 0.99 1.98 0.99 4 2 C4.66 1.34 5.32 0.68 6 0 C6.99 0 7.98 0 9 0 C12 5.625 12 5.625 12 9 C11.34 9 10.68 9 10 9 C9.01 10.485 9.01 10.485 8 12 C7.67386719 11.46890625 7.34773438 10.9378125 7.01171875 10.390625 C4.80141876 6.81763269 2.61184836 3.29917687 0 0 Z " fill="#CBB0C8" transform="translate(43,12)"/>
<path d="M0 0 C6.3782235 -0.36103152 6.3782235 -0.36103152 8.9375 1.125 C10.44484863 3.785027 10.19986253 6.00206205 10 9 C8.02 9.99 8.02 9.99 6 11 C6.33 10.34 6.66 9.68 7 9 C7.33333333 6 7.33333333 6 7 3 C6.01 2.34 5.02 1.68 4 1 C4 4.3 4 7.6 4 11 C3.01 11 2.02 11 1 11 C0.67 7.37 0.34 3.74 0 0 Z " fill="#414D61" transform="translate(64,16)"/>
<path d="M0 0 C0.33 0.66 0.66 1.32 1 2 C0.34 2 -0.32 2 -1 2 C-1 3.65 -1 5.3 -1 7 C-3.97 7 -6.94 7 -10 7 C-10 5.02 -10 3.04 -10 1 C-6.59437148 0.22157062 -3.49234244 -0.09978121 0 0 Z " fill="#FDB5BB" transform="translate(96,33)"/>
<path d="M0 0 C0.66 0.33 1.32 0.66 2 1 C-1.96 2.98 -1.96 2.98 -6 5 C-6 6.32 -6 7.64 -6 9 C-8.64 9 -11.28 9 -14 9 C-14 7.68 -14 6.36 -14 5 C-14.66 4.34 -15.32 3.68 -16 3 C-15.26394531 2.95101562 -14.52789063 2.90203125 -13.76953125 2.8515625 C-12.79371094 2.77679688 -11.81789063 2.70203125 -10.8125 2.625 C-9.84957031 2.55539063 -8.88664062 2.48578125 -7.89453125 2.4140625 C-4.96515337 2.11221952 -4.96515337 2.11221952 -2.26171875 0.8984375 C-1.51535156 0.60195313 -0.76898438 0.30546875 0 0 Z " fill="#CAA9C1" transform="translate(41,49)"/>
<path d="M0 0 C3.625 0.375 3.625 0.375 7 1 C8 4 8 4 7 7 C4.36 7 1.72 7 -1 7 C-1.625 4.625 -1.625 4.625 -2 2 C-1.34 1.34 -0.68 0.68 0 0 Z " fill="#FDAFB5" transform="translate(75,33)"/>
<path d="M0 0 C2.64 0 5.28 0 8 0 C7.34 1.65 6.68 3.3 6 5 C5.34 5 4.68 5 4 5 C4 3.68 4 2.36 4 1 C3.34 1 2.68 1 2 1 C1.91773332 4.04386724 2.02391783 6.07175348 3 9 C1.02 9.66 -0.96 10.32 -3 11 C-2.53199289 6.94393835 -2.12046792 3.53411321 0 0 Z " fill="#FDFAFB" transform="translate(22,16)"/>
<path d="M0 0 C0.99 0.495 0.99 0.495 2 1 C1.67 2.65 1.34 4.3 1 6 C1.94875 5.95875 2.8975 5.9175 3.875 5.875 C7 6 7 6 9 8 C8.625 10.625 8.625 10.625 8 13 C7.030625 12.835 6.06125 12.67 5.0625 12.5 C3.04016429 12.14007707 3.04016429 12.14007707 1 12 C0.67 12 0.34 12 0 12 C0 8.04 0 4.08 0 0 Z " fill="#E1E1EB" transform="translate(18,21)"/>
<path d="M0 0 C2.31 0 4.62 0 7 0 C6.67 1.65 6.34 3.3 6 5 C5.01 5 4.02 5 3 5 C3 3.68 3 2.36 3 1 C2.34 1 1.68 1 1 1 C1 4.3 1 7.6 1 11 C1.66 11 2.32 11 3 11 C3 9.35 3 7.7 3 6 C3.99 6.33 4.98 6.66 6 7 C6 8.65 6 10.3 6 12 C3.69 12 1.38 12 -1 12 C-0.67 8.04 -0.34 4.08 0 0 Z " fill="#B8BDC4" transform="translate(105,16)"/>
<path d="M0 0 C0.66 0 1.32 0 2 0 C2.33 0.66 2.66 1.32 3 2 C6.465 1.505 6.465 1.505 10 1 C10 2.98 10 4.96 10 7 C9.236875 6.814375 8.47375 6.62875 7.6875 6.4375 C4.91032625 5.77180827 4.91032625 5.77180827 2 7 C1.34 7 0.68 7 0 7 C0 4.69 0 2.38 0 0 Z " fill="#FC7E88" transform="translate(144,33)"/>
<path d="M0 0 C1.32 0 2.64 0 4 0 C4 3.63 4 7.26 4 11 C5.98 10.01 7.96 9.02 10 8 C9.67 9.32 9.34 10.64 9 12 C6.03 12 3.06 12 0 12 C0 8.04 0 4.08 0 0 Z " fill="#626C7C" transform="translate(314,16)"/>
<path d="M0 0 C1.32 0 2.64 0 4 0 C4 3.63 4 7.26 4 11 C5.98 10.01 7.96 9.02 10 8 C9.67 9.32 9.34 10.64 9 12 C6.03 12 3.06 12 0 12 C0 8.04 0 4.08 0 0 Z " fill="#636D7E" transform="translate(303,16)"/>
<path d="M0 0 C0.66 0 1.32 0 2 0 C2 1.32 2 2.64 2 4 C2.99 4 3.98 4 5 4 C5 2.68 5 1.36 5 0 C5.66 0 6.32 0 7 0 C6.979375 0.7425 6.95875 1.485 6.9375 2.25 C6.99328688 4.70462279 7.3069904 6.66109261 8 9 C6.68 9.33 5.36 9.66 4 10 C4 8.68 4 7.36 4 6 C3.34 5.67 2.68 5.34 2 5 C2 6.65 2 8.3 2 10 C1.34 10 0.68 10 0 10 C0 6.7 0 3.4 0 0 Z " fill="#3B475C" transform="translate(106,17)"/>
<path d="M0 0 C0.61875 0.33 1.2375 0.66 1.875 1 C1.875 1.33 1.875 1.66 1.875 2 C-5.055 2 -11.985 2 -19.125 2 C-13.32582251 -1.86611833 -6.5830436 -2.10657395 0 0 Z " fill="#EDEBF2" transform="translate(39.125,10)"/>
<path d="M0 0 C0.66 0 1.32 0 2 0 C2 0.66 2 1.32 2 2 C3.65 2 5.3 2 7 2 C8.125 6.75 8.125 6.75 7 9 C6.34 9 5.68 9 5 9 C5 8.34 5 7.68 5 7 C3.35 7 1.7 7 0 7 C0 4.69 0 2.38 0 0 Z " fill="#FD8C95" transform="translate(227,33)"/>
<path d="M0 0 C2.64 0 5.28 0 8 0 C8.33 1.32 8.66 2.64 9 4 C8.01 4 7.02 4 6 4 C3.93330603 4.90833725 3.93330603 4.90833725 2 6 C1.01 6.495 1.01 6.495 0 7 C0 6.34 0 5.68 0 5 C-0.66 5 -1.32 5 -2 5 C-1.34 3.35 -0.68 1.7 0 0 Z " fill="#FAF5F7" transform="translate(32,16)"/>
<path d="M0 0 C-0.4793247 4.31392226 -1.7457985 6.16569547 -5 9 C-5.33 8.01 -5.66 7.02 -6 6 C-5.67 5.34 -5.34 4.68 -5 4 C-6.32 3.34 -7.64 2.68 -9 2 C-5.5647952 -0.29013653 -4.014669 -0.17842973 0 0 Z " fill="#FBF8F9" transform="translate(42,34)"/>
<path d="M0 0 C1.32 0 2.64 0 4 0 C4.625 2.875 4.625 2.875 5 6 C4.34 6.66 3.68 7.32 3 8 C0.875 7.625 0.875 7.625 -1 7 C-1.625 4.625 -1.625 4.625 -2 2 C-1.34 1.34 -0.68 0.68 0 0 Z " fill="#A9AFB8" transform="translate(160,20)"/>
<path d="M0 0 C0.86625 0.3403125 0.86625 0.3403125 1.75 0.6875 C1.110625 0.873125 0.47125 1.05875 -0.1875 1.25 C-2.67126213 2.62996056 -2.67126213 2.62996056 -3 6.3125 C-3.0825 7.42625 -3.165 8.54 -3.25 9.6875 C0.215 9.1925 0.215 9.1925 3.75 8.6875 C3.75 9.3475 3.75 10.0075 3.75 10.6875 C-1.53301887 12.00825472 -1.53301887 12.00825472 -4.625 10.625 C-6.25 8.6875 -6.25 8.6875 -6.75 5.6875 C-6.25 2.6875 -6.25 2.6875 -4.5 0.75 C-2.25 -0.3125 -2.25 -0.3125 0 0 Z " fill="#5A6576" transform="translate(135.25,16.3125)"/>
<path d="M0 0 C3.95820859 0.56545837 6.6659053 1.80902348 10 4 C8 5.33333333 6 6.66666667 4 8 C4 7.01 4 6.02 4 5 C3.34 5 2.68 5 2 5 C1.67 5.66 1.34 6.32 1 7 C0.34 6.34 -0.32 5.68 -1 5 C-0.625 2.375 -0.625 2.375 0 0 Z " fill="#D8C0D2" transform="translate(39,2)"/>
<path d="M0 0 C2.48862878 3.23521742 4.75421558 6.59260295 7 10 C5.02 10.66 3.04 11.32 1 12 C1 11.01 1 10.02 1 9 C0.01 8.67 -0.98 8.34 -2 8 C-1.67 7.236875 -1.34 6.47375 -1 5.6875 C0.17436686 3.00930865 0.17436686 3.00930865 0 0 Z " fill="#C8AAC3" transform="translate(10,38)"/>
<path d="M0 0 C1.98 0 3.96 0 6 0 C6.33 1.65 6.66 3.3 7 5 C3.7 5 0.4 5 -3 5 C-3 3.68 -3 2.36 -3 1 C-2.01 1 -1.02 1 0 1 C0 0.67 0 0.34 0 0 Z " fill="#FD8F97" transform="translate(301,35)"/>
<path d="M0 0 C1.32 0.66 2.64 1.32 4 2 C4.25 7.625 4.25 7.625 2 11 C-1.125 11.1875 -1.125 11.1875 -4 11 C-2.68 10.67 -1.36 10.34 0 10 C0 6.7 0 3.4 0 0 Z " fill="#DDDFE3" transform="translate(68,17)"/>
<path d="M0 0 C0.33 0.99 0.66 1.98 1 3 C4.3 3.33 7.6 3.66 11 4 C11 4.33 11 4.66 11 5 C5.72 5.66 0.44 6.32 -5 7 C-5 5.02 -5 3.04 -5 1 C-2 0 -2 0 0 0 Z " fill="#CEA5BB" transform="translate(25,4)"/>
<path d="M0 0 C1.134375 0.020625 2.26875 0.04125 3.4375 0.0625 C3.4375 1.7125 3.4375 3.3625 3.4375 5.0625 C1.1275 5.0625 -1.1825 5.0625 -3.5625 5.0625 C-4.125 3.125 -4.125 3.125 -4.5625 1.0625 C-3.5625 0.0625 -3.5625 0.0625 0 0 Z " fill="#FD8E97" transform="translate(198.5625,34.9375)"/>
<path d="M0 0 C0.33 0.66 0.66 1.32 1 2 C2.65 2 4.3 2 6 2 C7.4606285 4.64738916 8 5.89448334 8 9 C7.34 9 6.68 9 6 9 C5.731875 8.195625 5.46375 7.39125 5.1875 6.5625 C4.795625 5.716875 4.40375 4.87125 4 4 C3.01 3.67 2.02 3.34 1 3 C1 4.98 1 6.96 1 9 C0.34 9 -0.32 9 -1 9 C-1.625 5.625 -1.625 5.625 -2 2 C-1.34 1.34 -0.68 0.68 0 0 Z " fill="#3D4A5E" transform="translate(224,18)"/>
<path d="M0 0 C0.99 0.33 1.98 0.66 3 1 C2.505 1.61875 2.01 2.2375 1.5 2.875 C-0.19222773 4.83880904 -0.19222773 4.83880904 0 7 C-2.31 7.66 -4.62 8.32 -7 9 C-5.52132701 3.33175355 -5.52132701 3.33175355 -2.9375 1.6875 C-2.298125 1.460625 -1.65875 1.23375 -1 1 C-0.67 0.67 -0.34 0.34 0 0 Z " fill="#ED747B" transform="translate(36,19)"/>
<path d="M0 0 C0.33 0.99 0.66 1.98 1 3 C1.825 3.309375 2.65 3.61875 3.5 3.9375 C6 5 6 5 6.9375 7 C6.958125 7.66 6.97875 8.32 7 9 C6.34 9.66 5.68 10.32 5 11 C1.875 10.625 1.875 10.625 -1 10 C-0.67 9.01 -0.34 8.02 0 7 C0 7.66 0 8.32 0 9 C1.32 9 2.64 9 4 9 C4 8.34 4 7.68 4 7 C1.53673288 5.3553326 1.53673288 5.3553326 -1 4 C-0.67 2.68 -0.34 1.36 0 0 Z " fill="#4E5A6C" transform="translate(178,17)"/>
<path d="M0 0 C2.00720923 0.28674418 4.0085944 0.61866701 6 1 C5.67 1.66 5.34 2.32 5 3 C3.68 2.67 2.36 2.34 1 2 C3.475 3.98 3.475 3.98 6 6 C5.67 7.65 5.34 9.3 5 11 C4.38125 10.360625 3.7625 9.72125 3.125 9.0625 C1.17402388 6.96116416 1.17402388 6.96116416 -1 6 C-1.042721 4.33388095 -1.04063832 2.66617115 -1 1 C-0.67 0.67 -0.34 0.34 0 0 Z " fill="#515C6E" transform="translate(117,16)"/>
<path d="M0 0 C0.66 0 1.32 0 2 0 C2 0.99 2 1.98 2 3 C3.65 3.33 5.3 3.66 7 4 C7 5.65 7 7.3 7 9 C6.01 9 5.02 9 4 9 C4.33 7.35 4.66 5.7 5 4 C4.01 4 3.02 4 2 4 C2 5.98 2 7.96 2 10 C1.34 10 0.68 10 0 10 C0 6.7 0 3.4 0 0 Z " fill="#2C3A50" transform="translate(150,17)"/>
<path d="M0 0 C1.0725 0.2475 2.145 0.495 3.25 0.75 C2.92 1.41 2.59 2.07 2.25 2.75 C1.445625 2.564375 0.64125 2.37875 -0.1875 2.1875 C-1.4559375 1.9709375 -1.4559375 1.9709375 -2.75 1.75 C-4.08648017 2.86101184 -4.08648017 2.86101184 -3.875 5.6875 C-3.96325664 8.66545728 -3.96325664 8.66545728 -2.75 10.75 C-4.07 10.42 -5.39 10.09 -6.75 9.75 C-7.5 7 -7.5 7 -7.75 3.75 C-5.44394882 0.00266684 -4.42559508 -0.29503967 0 0 Z " fill="#4C586A" transform="translate(99.75,16.25)"/>
<path d="M0 0 C2.0625 0.4375 2.0625 0.4375 4 1 C4.625 2.875 4.625 2.875 5 5 C4.34 5.66 3.68 6.32 3 7 C0.875 6.625 0.875 6.625 -1 6 C-1.042721 4.33388095 -1.04063832 2.66617115 -1 1 C-0.67 0.67 -0.34 0.34 0 0 Z " fill="#FD9AA2" transform="translate(275,33)"/>
<path d="M0 0 C2.97 0 5.94 0 9 0 C8.67 0.99 8.34 1.98 8 3 C8 2.34 8 1.68 8 1 C7.34 1 6.68 1 6 1 C6 2.98 6 4.96 6 7 C4.68 7 3.36 7 2 7 C2 5.02 2 3.04 2 1 C1.34 0.67 0.68 0.34 0 0 Z " fill="#FEDEE0" transform="translate(80,33)"/>
<path d="M0 0 C0.66 0 1.32 0 2 0 C2 3.63 2 7.26 2 11 C1.34 11 0.68 11 0 11 C0 9.02 0 7.04 0 5 C-1.32 5.99 -2.64 6.98 -4 8 C-4 6.35 -4 4.7 -4 3 C-2.68 3 -1.36 3 0 3 C0 2.01 0 1.02 0 0 Z " fill="#77808E" transform="translate(273,16)"/>
<path d="M0 0 C0.66 0.66 1.32 1.32 2 2 C2.99 2 3.98 2 5 2 C5 3.33333333 5 4.66666667 5 6 C5.33 6.66 5.66 7.32 6 8 C5.34 8.66 4.68 9.32 4 10 C4 9.34 4 8.68 4 8 C3.38125 7.9175 2.7625 7.835 2.125 7.75 C0 7 0 7 -1.25 4.9375 C-1.62125 3.9784375 -1.62125 3.9784375 -2 3 C-1.34 2.01 -0.68 1.02 0 0 Z " fill="#C8AAC4" transform="translate(6,13)"/>
<path d="M0 0 C0.33 0.66 0.66 1.32 1 2 C2.32 2 3.64 2 5 2 C4 5 4 5 1.5625 6.25 C-1 7 -1 7 -3 6 C-2.67 4.68 -2.34 3.36 -2 2 C-1.34 2 -0.68 2 0 2 C0 1.34 0 0.68 0 0 Z " fill="#F4F4F8" transform="translate(31,41)"/>
<path d="M0 0 C0.598125 0.185625 1.19625 0.37125 1.8125 0.5625 C4.16408762 1.22093687 4.16408762 1.22093687 7 0 C8.32 1.32 9.64 2.64 11 4 C10.01 4 9.02 4 8 4 C8 3.34 8 2.68 8 2 C7.34 2 6.68 2 6 2 C6.33 2.99 6.66 3.98 7 5 C4.36 5 1.72 5 -1 5 C-0.67 4.34 -0.34 3.68 0 3 C0.66 3.33 1.32 3.66 2 4 C2 3.34 2 2.68 2 2 C1.34 2 0.68 2 0 2 C0 1.34 0 0.68 0 0 Z " fill="#FC7D88" transform="translate(206,35)"/>
<path d="M0 0 C3.63 0 7.26 0 11 0 C9.68 0.33 8.36 0.66 7 1 C5.70339566 3.49034386 5.70339566 3.49034386 5 6 C5.66 6.33 6.32 6.66 7 7 C6.01 8.32 5.02 9.64 4 11 C3.34 10.67 2.68 10.34 2 10 C2.99 7.03 3.98 4.06 5 1 C3.35 1 1.7 1 0 1 C0 0.67 0 0.34 0 0 Z " fill="#D897A7" transform="translate(25,15)"/>
<path d="M0 0 C1.98 0 3.96 0 6 0 C6 0.66 6 1.32 6 2 C5.01 2 4.02 2 3 2 C3 3.98 3 5.96 3 8 C2.01 8 1.02 8 0 8 C0 5.36 0 2.72 0 0 Z " fill="#5F6A7A" transform="translate(166,20)"/>
<path d="M0 0 C1.65 0 3.3 0 5 0 C4.67 2.64 4.34 5.28 4 8 C2.68 7.67 1.36 7.34 0 7 C0 4.69 0 2.38 0 0 Z " fill="#C5C0DB" transform="translate(54,22)"/>
<path d="M0 0 C0.66 0 1.32 0 2 0 C2 0.66 2 1.32 2 2 C3.32 1.34 4.64 0.68 6 0 C6 1.98 6 3.96 6 6 C6.99 6.33 7.98 6.66 9 7 C7.68 7.33 6.36 7.66 5 8 C4.34 6.35 3.68 4.7 3 3 C2.01 3 1.02 3 0 3 C0 2.01 0 1.02 0 0 Z " fill="#596476" transform="translate(190,20)"/>
<path d="M0 0 C1.98 0 3.96 0 6 0 C6 0.66 6 1.32 6 2 C5.01 2 4.02 2 3 2 C3 3.98 3 5.96 3 8 C2.01 8 1.02 8 0 8 C0 5.36 0 2.72 0 0 Z " fill="#5A6476" transform="translate(211,20)"/>
<path d="M0 0 C0.99 0.33 1.98 0.66 3 1 C2.814375 1.928125 2.62875 2.85625 2.4375 3.8125 C1.75876119 7.01343771 1.75876119 7.01343771 3 10 C2.01 10 1.02 10 0 10 C-1.60339848 6.88228073 -2.18974141 5.60988311 -1.125 2.1875 C-0.75375 1.465625 -0.3825 0.74375 0 0 Z " fill="#3B485C" transform="translate(83,17)"/>
<path d="M0 0 C1 2 2 4 3 6 C2.34 6 1.68 6 1 6 C1.33 7.32 1.66 8.64 2 10 C-0.97 9.505 -0.97 9.505 -4 9 C-2.80100302 5.9168649 -1.52299523 2.93720508 0 0 Z " fill="#D6B4C6" transform="translate(51,37)"/>
<path d="M0 0 C2.31 0 4.62 0 7 0 C7 1.98 7 3.96 7 6 C5.68 6 4.36 6 3 6 C3 4.68 3 3.36 3 2 C2.34 2 1.68 2 1 2 C0.67 2.66 0.34 3.32 0 4 C0 2.68 0 1.36 0 0 Z " fill="#FC848D" transform="translate(281,35)"/>
<path d="M0 0 C2.31 1.65 4.62 3.3 7 5 C6.67 6.65 6.34 8.3 6 10 C5.38125 9.360625 4.7625 8.72125 4.125 8.0625 C2.17402388 5.96116416 2.17402388 5.96116416 0 5 C0 3.35 0 1.7 0 0 Z " fill="#39465B" transform="translate(241,17)"/>
<path d="M0 0 C0.66 1.32 1.32 2.64 2 4 C0.68 4.99 -0.64 5.98 -2 7 C-3.32 5.68 -4.64 4.36 -6 3 C-5 2 -5 2 -2.4375 1.9375 C-1.2309375 1.9684375 -1.2309375 1.9684375 0 2 C0 1.34 0 0.68 0 0 Z " fill="#D3CADA" transform="translate(29,39)"/>
<path d="M0 0 C0 1.32 0 2.64 0 4 C-1.98 4 -3.96 4 -6 4 C-6 2.68 -6 1.36 -6 0 C-3.50907189 -1.24546405 -2.58919267 -0.7767578 0 0 Z " fill="#FD8089" transform="translate(183,36)"/>
<path d="M0 0 C2.97 0.495 2.97 0.495 6 1 C5.75 2.875 5.75 2.875 5 5 C2.9375 6.25 2.9375 6.25 1 7 C2 4 2 4 3 3 C2.01 3 1.02 3 0 3 C0 2.01 0 1.02 0 0 Z " fill="#B7A2C4" transform="translate(4,33)"/>
<path d="M0 0 C0.66 0.66 1.32 1.32 2 2 C3.98821313 2.39764263 5.98944339 2.73775349 8 3 C8 3.33 8 3.66 8 4 C7.030625 4.28875 6.06125 4.5775 5.0625 4.875 C1.89335797 5.64214682 1.89335797 5.64214682 1 8 C0.34 7.67 -0.32 7.34 -1 7 C-1.04254356 5.00045254 -1.04080783 2.99958364 -1 1 C-0.67 0.67 -0.34 0.34 0 0 Z " fill="#F8E6E8" transform="translate(29,25)"/>
<path d="M0 0 C1.98 0 3.96 0 6 0 C6 1.32 6 2.64 6 4 C2.25 5.125 2.25 5.125 0 4 C0 2.68 0 1.36 0 0 Z " fill="#CCD0D5" transform="translate(179,16)"/>
<path d="M0 0 C1.32 0 2.64 0 4 0 C4 1.98 4 3.96 4 6 C2.68 6 1.36 6 0 6 C0 4.02 0 2.04 0 0 Z " fill="#FD8892" transform="translate(252,34)"/>
<path d="M0 0 C1.98 0 3.96 0 6 0 C6.66 1.98 7.32 3.96 8 6 C7.01 6 6.02 6 5 6 C4.67 4.68 4.34 3.36 4 2 C2.68 1.67 1.36 1.34 0 1 C0 0.67 0 0.34 0 0 Z " fill="#4A5669" transform="translate(261,20)"/>
<path d="M0 0 C0.33 0 0.66 0 1 0 C1 1.98 1 3.96 1 6 C1.99 6.33 2.98 6.66 4 7 C2.125 7.625 2.125 7.625 0 8 C-0.66 7.34 -1.32 6.68 -2 6 C-1.44444444 1.44444444 -1.44444444 1.44444444 0 0 Z " fill="#576273" transform="translate(251,20)"/>
<path d="M0 0 C0.33 0 0.66 0 1 0 C1 1.98 1 3.96 1 6 C1.99 6.33 2.98 6.66 4 7 C2.125 7.625 2.125 7.625 0 8 C-0.66 7.34 -1.32 6.68 -2 6 C-1.44444444 1.44444444 -1.44444444 1.44444444 0 0 Z " fill="#576274" transform="translate(188,20)"/>
<path d="M0 0 C1.32 0.33 2.64 0.66 4 1 C3.49396008 3.16874252 3.00016187 4.99967627 2 7 C1.34 7 0.68 7 0 7 C0 4.69 0 2.38 0 0 Z " fill="#FC8991" transform="translate(126,35)"/>
<path d="M0 0 C0.66 0.33 1.32 0.66 2 1 C2 2.32 2 3.64 2 5 C0.02 5 -1.96 5 -4 5 C-3.6875 3.0625 -3.6875 3.0625 -3 1 C-2.01 0.67 -1.02 0.34 0 0 Z " fill="#FC7D86" transform="translate(123,35)"/>
<path d="M0 0 C1.32 0 2.64 0 4 0 C4.33 1.98 4.66 3.96 5 6 C3.35 6 1.7 6 0 6 C0 4.02 0 2.04 0 0 Z " fill="#FC5563" transform="translate(86,34)"/>
<path d="M0 0 C0.66 0 1.32 0 2 0 C2 1.32 2 2.64 2 4 C2.99 4.33 3.98 4.66 5 5 C4.34 6.32 3.68 7.64 3 9 C2.67 8.34 2.34 7.68 2 7 C2.33 6.34 2.66 5.68 3 5 C1.68 5.33 0.36 5.66 -1 6 C-0.67 4.02 -0.34 2.04 0 0 Z " fill="#F4BBBE" transform="translate(24,17)"/>
<path d="M0 0 C0.33 0.99 0.66 1.98 1 3 C3.01508358 3.73323796 3.01508358 3.73323796 5 4 C4.67 4.99 4.34 5.98 4 7 C1.525 6.01 1.525 6.01 -1 5 C-1.33 5.66 -1.66 6.32 -2 7 C-1.125 1.125 -1.125 1.125 0 0 Z " fill="#F8F6F8" transform="translate(5,17)"/>
<path d="M0 0 C0.99 0 1.98 0 3 0 C4.125 4.75 4.125 4.75 3 7 C2.34 7 1.68 7 1 7 C0.67 4.69 0.34 2.38 0 0 Z " fill="#FDB9BE" transform="translate(231,35)"/>
<path d="M0 0 C2 0 2 0 3.625 1.5 C4.07875 1.995 4.5325 2.49 5 3 C4.34 5.31 3.68 7.62 3 10 C2.67 10 2.34 10 2 10 C1.34 6.7 0.68 3.4 0 0 Z " fill="#545F71" transform="translate(141,20)"/>
<path d="M0 0 C0.99 0.33 1.98 0.66 3 1 C2.34 2.65 1.68 4.3 1 6 C-0.32 5.67 -1.64 5.34 -3 5 C-2 2 -2 2 0 0 Z " fill="#A59EC8" transform="translate(13,9)"/>
<path d="M0 0 C0.66 0 1.32 0 2 0 C2 1.65 2 3.3 2 5 C0.02 5 -1.96 5 -4 5 C-3.67 3.68 -3.34 2.36 -3 1 C-3 1.99 -3 2.98 -3 4 C-2.34 4 -1.68 4 -1 4 C-0.67 2.68 -0.34 1.36 0 0 Z " fill="#FC727E" transform="translate(264,35)"/>
<path d="M0 0 C1.32 0 2.64 0 4 0 C4 1.65 4 3.3 4 5 C2.68 5 1.36 5 0 5 C0 3.35 0 1.7 0 0 Z " fill="#FD8F97" transform="translate(293,35)"/>
<path d="M0 0 C1.98 0 3.96 0 6 0 C5.67 1.32 5.34 2.64 5 4 C3.35 4 1.7 4 0 4 C0 2.68 0 1.36 0 0 Z " fill="#FC717E" transform="translate(245,36)"/>
<path d="M0 0 C0.99 0 1.98 0 3 0 C3 2.31 3 4.62 3 7 C2.01 7 1.02 7 0 7 C0 4.69 0 2.38 0 0 Z " fill="#D3D6DA" transform="translate(152,21)"/>
<path d="M0 0 C1.32 0.33 2.64 0.66 4 1 C4 2.32 4 3.64 4 5 C2.68 5 1.36 5 0 5 C0 3.35 0 1.7 0 0 Z " fill="#FD8790" transform="translate(161,35)"/>
<path d="M0 0 C1.32 0.33 2.64 0.66 4 1 C4 2.32 4 3.64 4 5 C2.68 5 1.36 5 0 5 C0 3.35 0 1.7 0 0 Z " fill="#FD8A92" transform="translate(135,35)"/>
<path d="M0 0 C1.32 0 2.64 0 4 0 C3.67 1.98 3.34 3.96 3 6 C2.01 6 1.02 6 0 6 C0 4.02 0 2.04 0 0 Z " fill="#A199C5" transform="translate(54,31)"/>
<path d="M0 0 C2.475 0.99 2.475 0.99 5 2 C4.67 2.99 4.34 3.98 4 5 C2.0625 4.6875 2.0625 4.6875 0 4 C-0.33 3.01 -0.66 2.02 -1 1 C-0.67 0.67 -0.34 0.34 0 0 Z " fill="#EBECEE" transform="translate(178,22)"/>
<path d="M0 0 C2.79872437 2.52788007 4.45773019 4.20411134 5 8 C3.35 7.67 1.7 7.34 0 7 C0.2784375 6.1028125 0.2784375 6.1028125 0.5625 5.1875 C1.22093687 2.83591238 1.22093687 2.83591238 0 0 Z " fill="#F6D1D4" transform="translate(53,11)"/>
<path d="M0 0 C0.66 0 1.32 0 2 0 C2.33 0.66 2.66 1.32 3 2 C3.66 2.33 4.32 2.66 5 3 C4.01 3.33 3.02 3.66 2 4 C2 4.99 2 5.98 2 7 C1.34 7 0.68 7 0 7 C0 4.69 0 2.38 0 0 Z " fill="#FD929A" transform="translate(144,33)"/>
<path d="M0 0 C0.66 0 1.32 0 2 0 C2.33 1.98 2.66 3.96 3 6 C1.68 6 0.36 6 -1 6 C-0.67 4.02 -0.34 2.04 0 0 Z " fill="#AFB5BD" transform="translate(253,20)"/>
<path d="M0 0 C0.99 0.495 0.99 0.495 2 1 C1.67 1.99 1.34 2.98 1 4 C1.99 4 2.98 4 4 4 C4.33 4.99 4.66 5.98 5 7 C3.35 7 1.7 7 0 7 C0 4.69 0 2.38 0 0 Z " fill="#DDE0E3" transform="translate(189,19)"/>
<path d="M0 0 C0.33 0 0.66 0 1 0 C1.33 2.31 1.66 4.62 2 7 C0.68 6.67 -0.64 6.34 -2 6 C-1.125 1.125 -1.125 1.125 0 0 Z " fill="#485467" transform="translate(160,20)"/>
<path d="M0 0 C0.33 0 0.66 0 1 0 C1 2.97 1 5.94 1 9 C0.34 9 -0.32 9 -1 9 C-1.625 5.625 -1.625 5.625 -2 2 C-1.34 1.34 -0.68 0.68 0 0 Z " fill="#2A384E" transform="translate(224,18)"/>
<path d="M0 0 C1.32 0 2.64 0 4 0 C3.25 1.9375 3.25 1.9375 2 4 C-0.125 4.75 -0.125 4.75 -2 5 C-2.33 4.34 -2.66 3.68 -3 3 C-2.01 3 -1.02 3 0 3 C0 2.01 0 1.02 0 0 Z " fill="#F6DEE1" transform="translate(11,15)"/>
<path d="M0 0 C0.99 0 1.98 0 3 0 C3 0.99 3 1.98 3 3 C4.32 3 5.64 3 7 3 C6.67 3.99 6.34 4.98 6 6 C6 5.34 6 4.68 6 4 C5.01 4.33 4.02 4.66 3 5 C1.5 3.625 1.5 3.625 0 2 C0 1.34 0 0.68 0 0 Z " fill="#B9BEC5" transform="translate(137,16)"/>
</svg>
